<svg xmlns="http://www.w3.org/2000/svg" viewBox="0 0 256 256" enable-background="new 0 0 256 256"><style type="text/css">.st0{fill:#F28322;} .st1{fill:#FFFFFF;}</style><path class="st0" d="M255 234.3c0 11.4-9.3 20.7-20.7 20.7h-212.6c-11.4 0-20.7-9.3-20.7-20.7v-212.6c0-11.4 9.3-20.7 20.7-20.7h212.5c11.5 0 20.7 9.3 20.7 20.7v212.6z"/><path class="st1" d="M213.5 101.7h-34.6v-14.5c0-4.1.5-7 1.6-8.8 1.1-1.8 3.4-2.7 7-2.7h26v-28.6h-31.8c-13.2 0-22.8 3.1-28.7 9.4-5.9 6.3-8.8 15.5-8.8 27.8v17.3h-16.6v26.4h16.6v80.9h34.7v-80.9h30l4.6-26.3z"/></svg>