<?xml version="1.0" encoding="utf-8"?>
<!-- Generator: Adobe Illustrator 16.0.0, SVG Export Plug-In . SVG Version: 6.00 Build 0)  -->
<!DOCTYPE svg PUBLIC "-//W3C//DTD SVG 1.1//EN" "http://www.w3.org/Graphics/SVG/1.1/DTD/svg11.dtd">
<svg version="1.1" id="Layer_1" xmlns="http://www.w3.org/2000/svg" xmlns:xlink="http://www.w3.org/1999/xlink" x="0px" y="0px"
	 width="256px" height="256px" viewBox="0 0 256 256" enable-background="new 0 0 256 256" xml:space="preserve">
<path fill="#F28322" d="M255,234.3c0,11.5-9.3,20.7-20.7,20.7H21.7C10.3,255,1,245.7,1,234.3V21.7C1,10.3,10.3,1,21.7,1h212.5
	c11.5,0,20.7,9.3,20.7,20.7v212.6H255z"/>
<path fill="#FFFFFF" d="M180.6,144.2c10.2-15.7,13.9-33.4,11.301-53.2c-2.301-16-10.5-28.1-24.4-36.4c-13.9-8.3-29.9-11.4-47.9-9.4
	c-14.6,1.8-27.5,8-38.8,18.6c-11.3,10.6-17.1,23.6-17.4,39c-0.9,21.8,6.8,34.601,23.1,38.4c2-3.2,3.1-6.2,3.1-8.9
	c0-2.8-0.4-4.9-1.3-6.3c-0.9-1.5-2-3.3-3.3-5.7c-1.3-2.3-2.3-4.6-2.8-7c-1.5-9.9,0.4-19.2,5.4-27.9c5.1-8.7,11.8-15.3,20-19.6
	c8.3-4.4,17.4-6.2,27.2-5.4c9.9,0.7,18.3,4.6,25.3,11.5c4.601,4.9,7.5,12.1,8.7,21.6c1.2,9.4,0.601,18.5-1.7,27
	c-2.3,8.6-6.5,15.8-12.399,21.6c-6,5.801-12.7,8-20.3,6.5c-5.801-1.199-9.3-3.899-10.5-8.3c-1.2-4.399-0.9-9.399,0.9-15
	c1.7-5.7,3.6-11.3,5.4-17c1.899-5.7,2.6-10.9,2.2-15.7c-0.4-4.8-3-8.1-7.601-9.8c-6.4-2.6-11.9-1.5-16.6,3.3
	c-4.6,4.8-7.3,10.7-7.8,17.6c-0.6,7,0.4,13.4,3.1,19.2c-0.9,4.9-2.5,11.8-4.8,20.7c-2.3,8.9-4.1,15.801-5.2,20.9
	c-1.2,5.1-2.3,12.5-3.5,22.2s-0.9,17.899,0.9,24.6c7.3-5.2,12.6-12.399,16.1-21.6s6.7-20.7,9.6-34.601c0.6,0.301,2.6,1.7,6.1,4.101
	c3.5,2.5,6.2,4.1,8.3,4.8c2,0.7,4.6,1.2,7.8,1.5C156.5,167,170.4,159.9,180.6,144.2z"/>
</svg>
