<?xml version="1.0" encoding="utf-8"?>
<!-- Generator: Adobe Illustrator 16.0.0, SVG Export Plug-In . SVG Version: 6.00 Build 0)  -->
<!DOCTYPE svg PUBLIC "-//W3C//DTD SVG 1.1//EN" "http://www.w3.org/Graphics/SVG/1.1/DTD/svg11.dtd">
<svg version="1.1" id="Layer_1" xmlns="http://www.w3.org/2000/svg" xmlns:xlink="http://www.w3.org/1999/xlink" x="0px" y="0px"
	 width="500px" height="500px" viewBox="0 0 500 500" enable-background="new 0 0 500 500" xml:space="preserve">
<g>
	<path fill="#231F20" d="M424.827,119.149c-22.253-98.432-101.426-43.224-101.426-43.224C311.94,86.65,300.095,93.148,288.74,96.874
		c0.006-13.595-3.578-106.501-103.588-88.642c0,0-2.568,71.042,81.311,83.025c0,0-63.336-24.394-71.04-73.181
		c0,0,72.324-5.136,88.587,78.317c0,0-0.104,0.826-0.196,1.949c-32.728,8.609-60.125-4.868-60.125-4.868
		c-67.916-14-72.33,40.228-72.33,40.228c-2.568,98.862,87.304,158.773,87.304,158.773c44.936,29.961,52.639,12.412,52.639,12.412
		c8.131-23.11,32.523-22.685,32.523-22.685c5.565,1.285,4.284-4.276,4.284-4.276c-31.242-12.413-46.651,22.252-46.651,22.252
		c-64.194-13.271-111.272-114.266-111.272-114.266c-34.665-88.162,39.374-81.741,39.374-81.741
		c73.608,20.971,111.698-9.844,111.698-9.844c67.619-42.368,84.737,7.278,84.737,7.278c39.374,80.883-48.789,179.744-48.789,179.744
		c-0.852,6.421,6.425,6.416,6.425,6.416C440.665,206.022,424.827,119.149,424.827,119.149z"/>
	<path opacity="0.9" fill="#CBB42D" d="M303.409,222.735c6.242,20.706-5.9,42.677-27.116,49.071
		c-21.217,6.394-43.477-5.205-49.718-25.914c-6.242-20.708,5.903-42.679,27.119-49.073
		C274.908,190.425,297.171,202.031,303.409,222.735z"/>
	
		<ellipse transform="matrix(0.9575 -0.2886 0.2886 0.9575 -45.0293 77.3)" opacity="0.7" fill="#F18221" cx="239.672" cy="191.381" rx="44.937" ry="42.734"/>
	<path opacity="0.7" fill="#ED2D2B" d="M316.359,141.186c6.375,21.145-7.447,44.005-30.872,51.065
		c-23.423,7.059-47.576-4.358-53.945-25.5c-6.375-21.144,7.447-44.006,30.871-51.064
		C285.836,108.628,309.99,120.045,316.359,141.186z"/>
	
		<ellipse transform="matrix(0.949 0.3154 -0.3154 0.949 65.4107 -99.1945)" opacity="0.7" fill="#CC2482" cx="339.23" cy="152.531" rx="41.078" ry="49.714"/>
	<path opacity="0.7" fill="#499298" d="M387.243,191.23c6.068,20.126-4.979,41.255-24.674,47.19s-40.578-5.57-46.646-25.695
		c-6.062-20.129,4.985-41.255,24.68-47.19C360.296,159.6,381.179,171.103,387.243,191.23z"/>
	<path fill="#231F20" d="M259.979,199.578l27.06,27.717c0,0,27.058,15.178,0,203.929h71.88c0,0-32.278-137.275-29.64-199.312
		c0,0,11.878-28.381,32.995-45.541l-3.295-6.603l-18.483,15.84c0,0,15.842-22.44,18.483-33.659l-3.962-5.938
		c0,0-15.181,29.7-24.42,34.981c0,0,4.619-10.557,9.898-49.5h-5.939c0,0-9.236,38.938-19.137,46.856c0,0,6.602-28.375,3.96-46.856
		h-7.923c0,0,0.66,91.735-46.196,54.116L259.979,199.578z"/>
	<g>
		<text transform="matrix(1 0 0 1 80.814 431.2227)" fill="#231F20" font-family="'BrainFlower'" font-size="138.161">Tutti</text>
	</g>
	<g>
		<g>
			<path opacity="0.8" fill="#CBB42D" d="M180.954,473.131c0.512,0,0.768,0.256,0.768,0.767c0,0.035-0.166,0.291-0.495,0.763
				c-0.328,0.477-0.792,1.068-1.395,1.781c-0.601,0.708-1.311,1.474-2.133,2.296c-0.82,0.817-1.74,1.575-2.761,2.268
				c-1.021,0.694-2.104,1.278-3.252,1.75c-1.149,0.477-2.345,0.713-3.583,0.713c-1.934,0-3.529-0.467-4.788-1.396
				c-1.256-0.929-2.267-2.115-3.034-3.556c-0.764-1.439-1.339-3.023-1.723-4.756c-0.383-1.732-0.684-3.384-0.902-4.95
				c-0.218-1.568-0.409-2.952-0.574-4.156c-0.164-1.202-0.391-2.006-0.682-2.407c-0.221-0.291-0.547-0.521-0.986-0.682
				c-0.439-0.165-0.91-0.293-1.422-0.387c-0.511-0.09-1.013-0.169-1.504-0.245c-0.491-0.07-0.92-0.163-1.284-0.271
				c-0.221,0-0.436-0.055-0.657-0.166c-0.183,0.876-0.537,1.979-1.065,3.311c-0.529,1.329-1.149,2.698-1.861,4.1
				c-0.71,1.404-1.457,2.762-2.242,4.075s-1.522,2.406-2.214,3.279c-0.221,0.256-0.446,0.421-0.685,0.494
				c-0.236,0.073-0.429,0.053-0.575-0.055c-0.145-0.108-0.225-0.292-0.245-0.547c-0.017-0.253,0.1-0.564,0.356-0.931
				c1.529-2.186,2.753-4.092,3.663-5.715c0.911-1.622,1.623-3.006,2.134-4.154c0.509-1.149,0.854-2.062,1.038-2.736
				c0.181-0.675,0.311-1.156,0.381-1.449c-0.546-0.184-1.063-0.347-1.557-0.492c-0.492-0.145-0.83-0.308-1.011-0.493
				c-1.023-0.582-1.532-1.495-1.532-2.733c0-0.876,0.301-1.62,0.903-2.242c0.599-0.619,1.339-0.93,2.214-0.93
				c0.802,0,1.495,0.255,2.079,0.766c0.582,0.51,0.93,1.133,1.038,1.859c0.038,0.184,0.073,0.347,0.111,0.491
				c0.035,0.329,0.035,0.713,0,1.148c0.765,0.221,1.795,0.377,3.089,0.467c1.294,0.091,2.588,0.181,3.884,0.271
				c1.294,0.092,2.468,0.23,3.526,0.411c1.058,0.184,1.75,0.491,2.079,0.93c0.329,0.475,0.629,1.286,0.902,2.435
				c0.273,1.148,0.537,2.433,0.793,3.854c0.252,1.423,0.546,2.891,0.875,4.404c0.328,1.512,0.727,2.895,1.204,4.155
				c0.471,1.258,1.048,2.296,1.722,3.118c0.675,0.817,1.502,1.229,2.488,1.229c0.729,0,1.477-0.155,2.244-0.463
				c0.763-0.309,1.455-0.664,2.076-1.066c0.728-0.438,1.439-0.947,2.131-1.532l1.643-2.134c0.072-0.146,0.19-0.264,0.354-0.356
				C180.653,473.177,180.809,473.131,180.954,473.131z"/>
			<path fill="#F18221" d="M218.854,473.131c0.472,0,0.712,0.256,0.712,0.767c0,0.035-0.148,0.291-0.438,0.763
				c-0.293,0.477-0.71,1.068-1.257,1.781c-0.549,0.708-1.214,1.474-1.996,2.296c-0.787,0.817-1.652,1.575-2.598,2.268
				c-0.95,0.694-1.98,1.278-3.092,1.75c-1.111,0.477-2.289,0.713-3.528,0.713c-1.349,0-2.478-0.329-3.39-0.984
				c-0.913-0.656-1.66-1.479-2.242-2.462c-0.582-0.982-1.039-2.042-1.367-3.172c-0.329-1.132-0.602-2.189-0.82-3.173
				c-0.221-0.981-0.401-1.806-0.546-2.462c-0.146-0.654-0.331-0.983-0.547-0.983c-0.547,2.48-1.241,4.685-2.081,6.618
				c-0.363,0.841-0.772,1.65-1.229,2.434s-0.958,1.485-1.505,2.105c-0.546,0.618-1.148,1.12-1.806,1.504
				c-0.654,0.384-1.364,0.575-2.131,0.575c-1.276,0-2.417-0.329-3.418-0.984c-1.002-0.656-1.888-1.539-2.653-2.653
				c-0.765-1.112-1.412-2.396-1.941-3.855c-0.529-1.46-0.948-2.979-1.256-4.566c-0.311-1.588-0.511-3.182-0.601-4.787
				c-0.091-1.603-0.066-3.113,0.08-4.538c0.11-1.312,0.446-2.461,1.013-3.446c0.564-0.982,1.164-1.729,1.806-2.242
				c0.636-0.508,1.208-0.746,1.72-0.709c0.511,0.037,0.767,0.384,0.767,1.038c0,1.166,0.07,2.46,0.218,3.885
				c0.146,1.419,0.354,2.854,0.629,4.292c0.271,1.439,0.592,2.834,0.958,4.184c0.361,1.349,0.772,2.543,1.229,3.58
				c0.457,1.041,0.958,1.882,1.504,2.518c0.547,0.637,1.128,0.959,1.75,0.959c1.167,0,2.152-0.502,2.955-1.506
				c0.8-1.003,1.484-2.262,2.048-3.773c0.564-1.512,1.041-3.152,1.422-4.923c0.383-1.768,0.737-3.41,1.068-4.922
				c0.326-1.513,0.662-2.771,1.01-3.773c0.346-1.003,0.755-1.505,1.231-1.505c0.803,0,1.485,0.577,2.052,1.725
				c0.564,1.148,1.073,2.568,1.53,4.264c0.456,1.696,0.893,3.548,1.313,5.552c0.416,2.005,0.893,3.857,1.419,5.552
				c0.532,1.694,1.141,3.116,1.836,4.266c0.692,1.148,1.529,1.722,2.513,1.722c0.729,0,1.414-0.155,2.051-0.463
				c0.638-0.309,1.194-0.664,1.67-1.066c0.547-0.438,1.018-0.947,1.42-1.532l1.642-2.134c0.073-0.146,0.19-0.264,0.354-0.356
				C218.498,473.177,218.671,473.131,218.854,473.131z"/>
			<path opacity="0.7" fill="#F18221" d="M244.83,473.131c0.51,0,0.766,0.256,0.766,0.767c0,0.035-0.163,0.291-0.491,0.763
				c-0.329,0.477-0.794,1.068-1.395,1.781c-0.603,0.708-1.314,1.474-2.134,2.296c-0.82,0.817-1.743,1.575-2.761,2.268
				c-1.023,0.694-2.106,1.278-3.255,1.75c-1.148,0.477-2.342,0.713-3.581,0.713c-1.788,0-3.182-0.467-4.183-1.396
				c-1.005-0.929-1.743-2.078-2.216-3.445c-0.474-1.368-0.757-2.863-0.848-4.483c-0.09-1.624-0.121-3.119-0.083-4.485
				c0.038-1.367,0.072-2.515,0.11-3.446c0.035-0.93-0.056-1.394-0.274-1.394c-0.436,0.91-0.978,1.951-1.614,3.117
				c-0.637,1.168-1.256,2.269-1.858,3.309c-0.602,1.039-1.121,1.942-1.557,2.707c-0.439,0.765-0.695,1.203-0.767,1.311
				c-0.183,0.256-0.401,0.412-0.657,0.467c-0.253,0.056-0.472,0.035-0.657-0.055c-0.181-0.091-0.309-0.226-0.381-0.412
				c-0.073-0.18-0.018-0.401,0.166-0.653c1.454-2.005,2.723-4.11,3.799-6.317s2.089-4.237,3.037-6.1
				c0.948-1.859,1.931-3.399,2.952-4.62c1.02-1.223,2.225-1.833,3.608-1.833c0.584,0,1.034,0.331,1.342,0.985
				c0.309,0.657,0.529,1.531,0.654,2.626c0.131,1.093,0.201,2.324,0.221,3.691c0.018,1.369,0.027,2.78,0.027,4.237
				c0,1.458,0.027,2.873,0.083,4.237c0.055,1.369,0.18,2.598,0.381,3.691c0.201,1.096,0.512,1.971,0.93,2.628
				s0.993,0.982,1.723,0.982c0.727,0,1.477-0.155,2.241-0.463c0.768-0.309,1.459-0.664,2.079-1.066
				c0.729-0.438,1.439-0.947,2.134-1.532l1.64-2.134C244.156,473.296,244.427,473.131,244.83,473.131z M229.461,451.476
				c-1.273,0-2.352-0.439-3.225-1.313c-0.875-0.876-1.313-1.951-1.313-3.227c0-1.24,0.439-2.297,1.313-3.174
				c0.873-0.873,1.952-1.312,3.225-1.312c1.277,0,2.352,0.438,3.228,1.312c0.875,0.877,1.312,1.934,1.312,3.174
				c0,1.275-0.436,2.351-1.312,3.227C231.813,451.036,230.738,451.476,229.461,451.476z"/>
			<path opacity="0.9" fill="#ED2D2B" d="M236.244,461.373c-0.474-0.291-0.564-0.702-0.273-1.231
				c0.292-0.527,0.82-1.094,1.585-1.695c0.767-0.603,1.688-1.203,2.764-1.806c1.073-0.602,2.176-1.139,3.308-1.612
				c0-2.297,0.018-4.621,0.055-6.974c0.038-2.352,0.101-4.5,0.191-6.452c0.093-1.948,0.208-3.608,0.355-4.978
				c0.146-1.366,0.329-2.231,0.547-2.597c0.401-0.618,0.947-1.396,1.643-2.322c0.69-0.934,1.408-1.796,2.158-2.6
				c0.745-0.801,1.431-1.424,2.049-1.859c0.623-0.436,1.079-0.491,1.369-0.165c0.181,0.254,0.257,1.251,0.219,2.98
				c-0.038,1.733-0.119,3.902-0.245,6.507c-0.129,2.608-0.274,5.518-0.439,8.725c-0.163,3.207-0.28,6.417-0.356,9.626
				c1.058,0.217,2.106,0.464,3.145,0.737c1.04,0.273,1.981,0.547,2.818,0.82c0.838,0.273,1.56,0.512,2.161,0.71
				c0.603,0.201,1.012,0.3,1.229,0.3c0.29,0,0.546-0.043,0.768-0.135c0.216-0.09,0.416-0.18,0.601-0.272
				c0.182-0.091,0.355-0.146,0.518-0.163c0.165-0.02,0.355,0.045,0.576,0.19c0.219,0.146,0.326,0.32,0.326,0.519
				c0,0.2-0.154,0.484-0.464,0.849c-0.309,0.362-0.802,0.847-1.476,1.448c-0.676,0.602-1.578,1.359-2.709,2.269
				c-0.949,0.769-2.068,1.115-3.36,1.04c-1.296-0.07-2.653-0.348-4.077-0.817c0.075,2.768,0.238,5.157,0.494,7.161
				c0.398,2.772,1.045,5.004,1.939,6.7c0.894,1.694,1.959,2.542,3.2,2.542c0.619,0,1.312-0.255,2.079-0.765
				c0.765-0.509,1.475-1.075,2.131-1.697c0.769-0.691,1.55-1.51,2.353-2.458c0.18-0.186,0.346-0.346,0.491-0.493
				c0.146-0.108,0.312-0.184,0.492-0.218c0.183-0.036,0.366,0.02,0.547,0.162c0.183,0.147,0.282,0.283,0.301,0.412
				c0.02,0.127,0,0.245-0.053,0.353c-0.056,0.11-0.128,0.211-0.219,0.302c-0.093,0.092-0.155,0.175-0.192,0.245
				c-0.038,0.076-0.208,0.338-0.521,0.795c-0.31,0.457-0.729,1.004-1.258,1.641c-0.527,0.639-1.158,1.331-1.885,2.078
				c-0.731,0.748-1.551,1.44-2.463,2.076c-0.91,0.64-1.906,1.169-2.98,1.587c-1.075,0.42-2.196,0.631-3.364,0.631
				c-1.201,0-2.241-0.267-3.113-0.794c-0.879-0.529-1.637-1.203-2.273-2.026c-0.637-0.817-1.166-1.746-1.584-2.788
				c-0.421-1.038-0.758-2.065-1.014-3.088c-0.255-1.02-0.426-1.997-0.516-2.925c-0.094-0.933-0.139-1.688-0.139-2.271
				c0-0.582-0.007-1.796-0.027-3.637c-0.018-1.841-0.027-3.964-0.027-6.369c-0.619-0.186-1.194-0.302-1.723-0.355
				c-0.527-0.055-0.994-0.03-1.395,0.08c-0.73,0.183-1.314,0.431-1.75,0.737c-0.437,0.311-0.792,0.594-1.068,0.847
				c-0.271,0.257-0.517,0.45-0.737,0.577C236.736,461.583,236.498,461.556,236.244,461.373z"/>
			<path opacity="0.7" fill="#ED2D2B" d="M301.761,473.131c0.51,0,0.766,0.256,0.766,0.767c0,0.035-0.164,0.291-0.493,0.763
				c-0.328,0.477-0.792,1.068-1.395,1.781c-0.601,0.708-1.312,1.474-2.134,2.296c-0.82,0.817-1.74,1.575-2.761,2.268
				c-1.021,0.694-2.104,1.278-3.252,1.75c-1.148,0.477-2.345,0.713-3.583,0.713c-1.934,0-3.528-0.467-4.787-1.396
				c-1.258-0.929-2.268-2.115-3.035-3.556c-0.764-1.439-1.338-3.023-1.722-4.756c-0.385-1.732-0.685-3.384-0.902-4.95
				c-0.22-1.568-0.409-2.952-0.575-4.156c-0.163-1.202-0.393-2.006-0.682-2.407c-0.221-0.291-0.547-0.521-0.985-0.682
				c-0.439-0.165-0.911-0.293-1.423-0.387c-0.512-0.09-1.013-0.169-1.503-0.245c-0.491-0.07-0.922-0.163-1.285-0.271
				c-0.22,0-0.436-0.055-0.657-0.166c-0.183,0.876-0.537,1.979-1.065,3.311c-0.528,1.329-1.148,2.698-1.861,4.1
				c-0.709,1.404-1.456,2.762-2.24,4.075c-0.786,1.313-1.523,2.406-2.215,3.279c-0.221,0.256-0.447,0.421-0.685,0.494
				c-0.236,0.073-0.429,0.053-0.575-0.055c-0.145-0.108-0.226-0.292-0.245-0.547c-0.018-0.253,0.101-0.564,0.356-0.931
				c1.529-2.186,2.752-4.092,3.664-5.715c0.91-1.622,1.622-3.006,2.133-4.154c0.511-1.149,0.856-2.062,1.038-2.736
				s0.312-1.156,0.381-1.449c-0.546-0.184-1.062-0.347-1.557-0.492c-0.49-0.145-0.829-0.308-1.011-0.493
				c-1.023-0.582-1.531-1.495-1.531-2.733c0-0.876,0.3-1.62,0.903-2.242c0.599-0.619,1.338-0.93,2.214-0.93
				c0.802,0,1.493,0.255,2.078,0.766c0.582,0.51,0.931,1.133,1.038,1.859c0.038,0.184,0.072,0.347,0.11,0.491
				c0.034,0.329,0.034,0.713,0,1.148c0.766,0.221,1.795,0.377,3.089,0.467c1.295,0.091,2.588,0.181,3.885,0.271
				c1.294,0.092,2.468,0.23,3.525,0.411c1.06,0.184,1.75,0.491,2.079,0.93c0.327,0.475,0.63,1.286,0.902,2.435
				c0.274,1.148,0.537,2.433,0.794,3.854c0.252,1.423,0.547,2.891,0.874,4.404c0.329,1.512,0.727,2.895,1.203,4.155
				c0.472,1.258,1.048,2.296,1.723,3.118c0.676,0.817,1.503,1.229,2.488,1.229c0.729,0,1.478-0.155,2.244-0.463
				c0.763-0.309,1.454-0.664,2.076-1.066c0.728-0.438,1.439-0.947,2.131-1.532l1.644-2.134c0.072-0.146,0.19-0.264,0.354-0.356
				C301.459,473.177,301.614,473.131,301.761,473.131z"/>
			<path opacity="0.9" fill="#CC2482" d="M320.465,463.832c-0.22,0.913-0.665,1.906-1.342,2.981c-0.673,1.076-1.449,2.145-2.322,3.2
				c-0.878,1.056-1.796,2.079-2.764,3.062c-0.966,0.984-1.83,1.841-2.598,2.57c0.729,1.166,1.632,2.114,2.709,2.847
				c1.073,0.727,2.341,1.093,3.801,1.093c1.055,0,2.203-0.221,3.444-0.657c1.057-0.4,2.298-1.03,3.718-1.885
				c1.423-0.858,2.937-2.162,4.54-3.912c0.219-0.328,0.438-0.513,0.655-0.547c0.22-0.036,0.391,0.02,0.522,0.166
				c0.125,0.145,0.207,0.325,0.245,0.546c0.034,0.216,0,0.401-0.11,0.547c-0.072,0.108-0.375,0.427-0.903,0.955
				c-0.525,0.529-1.229,1.148-2.105,1.858c-0.873,0.712-1.886,1.47-3.035,2.271c-1.148,0.804-2.378,1.54-3.691,2.216
				c-1.314,0.673-2.679,1.23-4.103,1.666c-1.418,0.437-2.843,0.658-4.262,0.658c-2.154,0-4.003-0.438-5.553-1.315
				c-1.549-0.871-2.828-1.966-3.829-3.28c-1.003-1.313-1.75-2.752-2.241-4.319c-0.494-1.567-0.74-3.044-0.74-4.431
				c0-1.419,0.275-2.952,0.822-4.595c0.547-1.64,1.356-3.159,2.433-4.563c1.073-1.404,2.415-2.573,4.021-3.501
				c1.602-0.931,3.444-1.394,5.522-1.394c1.676,0,3.025,0.246,4.049,0.736c1.018,0.491,1.785,1.122,2.298,1.887
				c0.507,0.768,0.808,1.604,0.901,2.518C320.638,462.119,320.607,462.995,320.465,463.832z M313.901,457.654
				c-1.24,0-2.251,0.557-3.033,1.667c-0.788,1.113-1.325,2.49-1.615,4.131c-0.29,1.64-0.328,3.417-0.11,5.33
				c0.221,1.916,0.691,3.691,1.424,5.331c0.762-0.653,1.603-1.411,2.514-2.267c0.912-0.858,1.769-1.751,2.572-2.68
				c0.8-0.931,1.504-1.859,2.104-2.791c0.602-0.929,0.958-1.796,1.065-2.599c0.183-1.129,0.166-2.086-0.055-2.869
				c-0.217-0.784-0.564-1.414-1.038-1.888s-1.048-0.82-1.721-1.038C315.33,457.764,314.63,457.654,313.901,457.654z"/>
			<path opacity="0.7" fill="#499298" d="M349.013,463.832c-0.22,0.913-0.667,1.906-1.342,2.981c-0.674,1.076-1.449,2.145-2.324,3.2
				c-0.874,1.056-1.795,2.079-2.763,3.062c-0.963,0.984-1.831,1.841-2.596,2.57c0.729,1.166,1.633,2.114,2.706,2.847
				c1.075,0.727,2.342,1.093,3.801,1.093c1.058,0,2.207-0.221,3.445-0.657c1.059-0.4,2.298-1.03,3.719-1.885
				c1.423-0.858,2.937-2.162,4.542-3.912c0.216-0.328,0.436-0.513,0.654-0.547c0.219-0.036,0.392,0.02,0.519,0.166
				c0.129,0.145,0.211,0.325,0.246,0.546c0.035,0.216,0,0.401-0.11,0.547c-0.069,0.108-0.371,0.427-0.899,0.955
				c-0.53,0.529-1.231,1.148-2.107,1.858c-0.875,0.712-1.885,1.47-3.033,2.271c-1.149,0.804-2.38,1.54-3.693,2.216
				c-1.312,0.673-2.679,1.23-4.101,1.666c-1.422,0.437-2.844,0.658-4.267,0.658c-2.15,0-4.002-0.438-5.551-1.315
				c-1.55-0.871-2.826-1.966-3.827-3.28c-1.003-1.313-1.75-2.752-2.241-4.319c-0.494-1.567-0.739-3.044-0.739-4.431
				c0-1.419,0.272-2.952,0.819-4.595c0.548-1.64,1.359-3.159,2.432-4.563c1.075-1.404,2.418-2.573,4.022-3.501
				c1.604-0.931,3.446-1.394,5.522-1.394c1.677,0,3.026,0.246,4.046,0.736c1.022,0.491,1.785,1.122,2.298,1.887
				c0.512,0.768,0.813,1.604,0.902,2.518C349.184,462.119,349.155,462.995,349.013,463.832z M342.448,457.654
				c-1.238,0-2.252,0.557-3.033,1.667c-0.787,1.113-1.325,2.49-1.617,4.131c-0.289,1.64-0.325,3.417-0.105,5.33
				c0.217,1.916,0.69,3.691,1.42,5.331c0.766-0.653,1.605-1.411,2.516-2.267c0.91-0.858,1.768-1.751,2.57-2.68
				c0.802-0.931,1.505-1.859,2.106-2.791c0.602-0.929,0.958-1.796,1.065-2.599c0.183-1.129,0.163-2.086-0.055-2.869
				c-0.218-0.784-0.563-1.414-1.037-1.888c-0.475-0.474-1.053-0.82-1.724-1.038C343.878,457.764,343.178,457.654,342.448,457.654z"
				/>
			<path opacity="0.9" fill="#CBB42D" d="M143.902,436.023c-3.19,0.276-6.562,0.447-10.115,0.521
				c-3.557,0.073-7.222,0.08-10.994,0.024c-3.774-0.055-7.483-0.161-11.129-0.325c-3.646-0.165-7.156-0.337-10.526-0.521
				c-3.375-0.181-6.445-0.347-9.218-0.492c-2.769-0.146-5.175-0.263-7.217-0.355c-2.041-0.091-3.536-0.101-4.483-0.024
				c-1.934,0.106-3.401,0.501-4.404,1.173c-1.003,0.678-1.623,1.449-1.86,2.324c-0.236,0.876-0.146,1.761,0.273,2.653
				c0.419,0.896,1.121,1.632,2.106,2.215c0.474,0.293,1.478,0.528,3.007,0.712c1.532,0.181,3.438,0.336,5.717,0.464
				c2.277,0.128,4.85,0.218,7.708,0.272c2.864,0.056,5.843,0.084,8.942,0.084c0,1.131-0.01,2.58-0.025,4.348
				c-0.021,1.768-0.048,3.784-0.085,6.041c-0.036,2.262-0.063,4.704-0.08,7.329c-0.02,2.626-0.028,5.345-0.028,8.147
				c-0.015,0-0.028,0.008-0.043,0.005v6.875c0.015,0,0.028,0.01,0.043,0.01c0,4.269,0.037,8.487,0,12.664
				c-0.043,4.895,3.192,4.725,3.177,1.846c-0.02-2.881-0.015-2.057-0.033-5.155c-0.018-2.679-0.023-5.376-0.023-8.084h-0.035v-7.99
				c-0.01,0-0.015-0.005-0.025-0.005c0-2.809,0-5.531,0-8.175c0-2.643,0-5.096,0-7.357c0-2.259-0.01-4.283-0.024-6.068
				c-0.021-1.785-0.031-3.265-0.031-4.43c3.245-0.038,6.482-0.101,9.71-0.194c3.225-0.09,6.278-0.198,9.16-0.326
				c2.879-0.127,5.477-0.29,7.792-0.491c2.316-0.201,4.185-0.411,5.606-0.632c2.879-0.472,5.306-1.155,7.272-2.048
				c1.971-0.896,3.59-1.814,4.869-2.762c1.457-1.058,2.644-2.206,3.557-3.444C149.946,435.358,147.092,435.753,143.902,436.023z"/>
		</g>
	</g>
	<path fill="#CBB42D" d="M104.744,460.229c2.919,0.184,6.063,0.35,9.434,0.495c3.373,0.145,6.72,0.215,10.035,0.215
		c3.32,0,6.489-0.09,9.519-0.271c3.024-0.183,5.667-0.529,7.929-1.041c-0.657,0.913-1.477,1.769-2.462,2.57
		c-0.873,0.692-1.997,1.38-3.363,2.051c-1.366,0.677-3.054,1.178-5.058,1.506c-1.093,0.182-2.607,0.355-4.539,0.519
		c-1.936,0.164-4.078,0.301-6.427,0.409c-2.352,0.11-4.822,0.186-7.41,0.22c-2.59,0.035-5.124,0.055-7.604,0.055
		c0,3.135-3.117,4.267-3.117,0c-1.64-0.034-3.192-0.082-4.647-0.138c-1.459-0.053-2.752-0.127-3.884-0.218
		c-1.131-0.09-2.079-0.2-2.846-0.328c-0.762-0.128-1.274-0.283-1.529-0.465c-0.657-0.438-1.139-0.984-1.45-1.639
		c-0.309-0.656-0.374-1.304-0.19-1.943c0.181-0.638,0.627-1.201,1.339-1.695c0.712-0.491,1.723-0.793,3.034-0.903
		c0.768-0.034,2.043-0.007,3.829,0.083c1.788,0.09,3.902,0.211,6.344,0.356C101.682,457.258,104.744,457.423,104.744,460.229z"/>
</g>
</svg>
