<svg xmlns="http://www.w3.org/2000/svg" viewBox="0 0 500 500" enable-background="new 0 0 500 500"><style type="text/css">.st0{fill:#231F20;} .st1{opacity:0.9;fill:#CBB42D;enable-background:new ;} .st2{opacity:0.7;fill:#F18221;enable-background:new ;} .st3{opacity:0.7;fill:#ED2D2B;enable-background:new ;} .st4{opacity:0.7;fill:#CC2482;enable-background:new ;} .st5{opacity:0.7;fill:#499298;enable-background:new ;} .st6{enable-background:new ;} .st7{opacity:0.8;fill:#CBB42D;enable-background:new ;} .st8{fill:#F18221;} .st9{opacity:0.9;fill:#ED2D2B;enable-background:new ;} .st10{opacity:0.9;fill:#CC2482;enable-background:new ;} .st11{fill:#CBB42D;}</style><path class="st0" d="M424.8 119.1c-22.3-98.4-101.4-43.2-101.4-43.2-11.5 10.7-23.3 17.2-34.7 20.9 0-13.6-3.6-106.5-103.6-88.6 0 0-2.6 71 81.3 83 0 0-63.3-24.4-71-73.2 0 0 72.3-5.1 88.6 78.3 0 0-.1.8-.2 1.9-32.7 8.6-60.1-4.9-60.1-4.9-67.9-14-72.3 40.2-72.3 40.2-2.6 98.9 87.3 158.8 87.3 158.8 44.9 30 52.6 12.4 52.6 12.4 8.1-23.1 32.5-22.7 32.5-22.7 5.6 1.3 4.3-4.3 4.3-4.3-31.2-12.4-46.7 22.3-46.7 22.3-64.2-13.3-111.3-114.3-111.3-114.3-34.7-88.2 39.4-81.7 39.4-81.7 73.6 21 111.7-9.8 111.7-9.8 67.6-42.4 84.7 7.3 84.7 7.3 39.4 80.9-48.8 179.7-48.8 179.7-.9 6.4 6.4 6.4 6.4 6.4 77.2-81.6 61.3-168.5 61.3-168.5z"/><path class="st1" d="M303.4 222.7c6.2 20.7-5.9 42.7-27.1 49.1-21.2 6.4-43.5-5.2-49.7-25.9-6.2-20.7 5.9-42.7 27.1-49.1 21.2-6.4 43.5 5.2 49.7 25.9z"/><ellipse transform="matrix(-.289 -.958 .958 -.289 125.625 476.098)" class="st2" cx="239.7" cy="191.4" rx="42.7" ry="44.9"/><path class="st3" d="M316.4 141.2c6.4 21.1-7.4 44-30.9 51.1-23.4 7.1-47.6-4.4-53.9-25.5-6.4-21.1 7.4-44 30.9-51.1 23.3-7.1 47.5 4.3 53.9 25.5z"/><ellipse transform="matrix(.315 -.949 .949 .315 87.477 426.356)" class="st4" cx="339.2" cy="152.6" rx="49.7" ry="41.1"/><path class="st5" d="M387.2 191.2c6.1 20.1-5 41.3-24.7 47.2s-40.6-5.6-46.6-25.7c-6.1-20.1 5-41.3 24.7-47.2 19.7-5.9 40.6 5.6 46.6 25.7z"/><path class="st0" d="M260 199.6l27.1 27.7s27.1 15.2 0 203.9h71.9s-32.3-137.3-29.6-199.3c0 0 11.9-28.4 33-45.5l-3.3-6.6-18.5 15.8s15.8-22.4 18.5-33.7l-4-5.9s-15.2 29.7-24.4 35c0 0 4.6-10.6 9.9-49.5h-5.9s-9.2 38.9-19.1 46.9c0 0 6.6-28.4 4-46.9h-7.9s.7 91.7-46.2 54.1l-5.5 4z"/><g class="st6"><path class="st0" d="M114.9 343.4l.8.9v.7c0 .8-2.5 1.1-7.6 1.1h-7.6c-.3 0-.5.3-.8.9l.5 12.3c-.2 1.1-.3 1.8-.3 1.9 1.6 27.2 2.4 46.7 2.4 58.5.2.3.3.6.3.7-.2.3-.3.5-.3.7l.3 1.6c-.3.6-.5.9-.8.9h-1.1c-.2 0-.5-.3-1.1-.9 0-.3.1-1.2.3-2.6 0-3.9-.8-23.3-2.4-58.3 0-5.7-.2-10.9-.5-15.6l-.5-.3h-.8l-8.6.7c-.5-.6-.8-1.3-.8-2.1 0-.3.4-.6 1.1-.9 1.3.3 2 .5 2.2.5 3.5-.3 5.9-.5 7.3-.5h11.1c2.2.3 4.6.1 6.9-.2zM135.9 336.2h.5c.9.5 1.3 1.2 1.3 2.2v1.3c1.6 29.3 3.6 52.8 5.9 70.7 1.6 12.1 4 18.1 7.3 18.1 2.3-1 3.5-2.7 3.5-5.1 0-7.1-.7-24.9-2.2-53.4.2-5.2.3-10.3.3-15.1v-6.5l-.3-1.6.3-.5c-.2-2.4-.5-4.9-.8-7.6l1.1-.8h.8c.8 0 1.3 2.5 1.6 7.6 0 .4-.1.5-.3.5.2 2.7.3 4.7.3 5.9v8.6l-.3 1.6c0 .2.1.3.3.3-.2 2.1-.3 3.6-.3 4.6v1.1c1.4 31.3 2.2 49.7 2.2 55.3-.5 5.2-2.8 7.8-7 7.8-4.9 0-8.1-8.6-9.7-25.9-2-15.4-3.9-38.1-5.7-68.3l1.2-.8zM203.6 343.4l.8.9v.7c0 .8-2.5 1.1-7.6 1.1h-7.6c-.3 0-.5.3-.8.9l.5 12.3c-.2 1.1-.3 1.8-.3 1.9 1.6 27.2 2.4 46.7 2.4 58.5.2.3.3.6.3.7-.2.3-.3.5-.3.7l.3 1.6c-.3.6-.5.9-.8.9h-1.1c-.2 0-.5-.3-1.1-.9 0-.3.1-1.2.3-2.6 0-3.9-.8-23.3-2.4-58.3 0-5.7-.2-10.9-.5-15.6l-.5-.3h-.8l-8.6.7c-.5-.6-.8-1.3-.8-2.1 0-.3.4-.6 1.1-.9 1.3.3 2 .5 2.2.5 3.5-.3 5.9-.5 7.3-.5h11.1c2.2.3 4.5.1 6.9-.2zM245.1 343.4l.8.9v.7c0 .8-2.5 1.1-7.6 1.1h-7.6c-.3 0-.5.3-.8.9l.5 12.3c-.2 1.1-.3 1.8-.3 1.9 1.6 27.2 2.4 46.7 2.4 58.5.2.3.3.6.3.7-.2.3-.3.5-.3.7l.3 1.6c-.3.6-.5.9-.8.9h-1.1c-.2 0-.5-.3-1.1-.9 0-.3.1-1.2.3-2.6 0-3.9-.8-23.3-2.4-58.3 0-5.7-.2-10.9-.5-15.6l-.5-.3h-.7l-8.6.7c-.5-.6-.8-1.3-.8-2.1 0-.3.4-.6 1.1-.9 1.3.3 2 .5 2.2.5 3.5-.3 5.9-.5 7.3-.5h11.1c2.1.3 4.5.1 6.8-.2zM266.9 339.5h.5c1.3 0 1.9 4.8 1.9 14.3v3.5c0 3.5-.5 12.6-1.6 27.3 0 .7.1 1.4.3 2.2-.2 9.4-.3 16.9-.3 22.4v17.5c0 .4.2 1.3.5 2.7-.2 1.3-.6 1.9-1.1 1.9h-1.1c-.7 0-1.1-2.4-1.1-7.3 0-31.2.5-52.7 1.6-64.5v-7.6c0-4.2-.3-8-.8-11.3.2-.3.5-.7 1.2-1.1z"/></g><path class="st7" d="M181 473.1c.5 0 .8.3.8.8 0 0-.2.3-.5.8s-.8 1.1-1.4 1.8c-.6.7-1.3 1.5-2.1 2.3-.8.8-1.7 1.6-2.8 2.3-1 .7-2.1 1.3-3.3 1.8-1.1.5-2.3.7-3.6.7-1.9 0-3.5-.5-4.8-1.4-1.3-.9-2.3-2.1-3-3.6-.8-1.4-1.3-3-1.7-4.8-.4-1.7-.7-3.4-.9-5-.2-1.6-.4-3-.6-4.2-.2-1.2-.4-2-.7-2.4-.2-.3-.5-.5-1-.7-.4-.2-.9-.3-1.4-.4-.5-.1-1-.2-1.5-.2-.5-.1-.9-.2-1.3-.3-.2 0-.4-.1-.7-.2-.2.9-.5 2-1.1 3.3-.5 1.3-1.1 2.7-1.9 4.1-.7 1.4-1.5 2.8-2.2 4.1s-1.5 2.4-2.2 3.3c-.2.3-.4.4-.7.5-.2.1-.4.1-.6-.1-.1-.1-.2-.3-.2-.5 0-.3.1-.6.4-.9 1.5-2.2 2.8-4.1 3.7-5.7.9-1.6 1.6-3 2.1-4.2.5-1.1.9-2.1 1-2.7.2-.7.3-1.2.4-1.4l-1.6-.5c-.5-.1-.8-.3-1-.5-1-.6-1.5-1.5-1.5-2.7 0-.9.3-1.6.9-2.2.6-.6 1.3-.9 2.2-.9.8 0 1.5.3 2.1.8.6.5.9 1.1 1 1.9l.1.5v1.1c.8.2 1.8.4 3.1.5l3.9.3c1.3.1 2.5.2 3.5.4 1.1.2 1.8.5 2.1.9.3.5.6 1.3.9 2.4.3 1.1.5 2.4.8 3.9.3 1.4.5 2.9.9 4.4.3 1.5.7 2.9 1.2 4.2.5 1.3 1 2.3 1.7 3.1.7.8 1.5 1.2 2.5 1.2.7 0 1.5-.2 2.2-.5.8-.3 1.5-.7 2.1-1.1.7-.4 1.4-.9 2.1-1.5l1.6-2.1c.1-.1.2-.3.4-.4.3-.2.4-.3.6-.3z"/><path class="st8" d="M218.9 473.1c.5 0 .7.3.7.8 0 0-.1.3-.4.8-.3.5-.7 1.1-1.3 1.8-.5.7-1.2 1.5-2 2.3-.8.8-1.7 1.6-2.6 2.3-.9.7-2 1.3-3.1 1.8s-2.3.7-3.5.7c-1.3 0-2.5-.3-3.4-1-.9-.7-1.7-1.5-2.2-2.5-.6-1-1-2-1.4-3.2-.3-1.1-.6-2.2-.8-3.2-.2-1-.4-1.8-.5-2.5-.1-.7-.3-1-.5-1-.5 2.5-1.2 4.7-2.1 6.6l-1.2 2.4s-1 1.5-1.5 2.1c-.5.6-1.1 1.1-1.8 1.5-.7.4-1.4.6-2.1.6-1.3 0-2.4-.3-3.4-1s-1.9-1.5-2.7-2.7c-.8-1.1-1.4-2.4-1.9-3.9s-.9-3-1.3-4.6c-.3-1.6-.5-3.2-.6-4.8-.1-1.6-.1-3.1.1-4.5.1-1.3.4-2.5 1-3.4.6-1 1.2-1.7 1.8-2.2.6-.5 1.2-.7 1.7-.7s.8.4.8 1c0 1.2.1 2.5.2 3.9s.4 2.9.6 4.3c.3 1.4.6 2.8 1 4.2.4 1.3.8 2.5 1.2 3.6.5 1 1 1.9 1.5 2.5.5.6 1.1 1 1.8 1 1.2 0 2.2-.5 3-1.5.8-1 1.5-2.3 2-3.8.6-1.5 1-3.2 1.4-4.9.4-1.8.7-3.4 1.1-4.9.3-1.5.7-2.8 1-3.8.3-1 .8-1.5 1.2-1.5.8 0 1.5.6 2.1 1.7.6 1.1 1.1 2.6 1.5 4.3.5 1.7.9 3.5 1.3 5.6.4 2 .9 3.9 1.4 5.6.5 1.7 1.1 3.1 1.8 4.3.7 1.1 1.5 1.7 2.5 1.7.7 0 1.4-.2 2.1-.5.6-.3 1.2-.7 1.7-1.1.5-.4 1-.9 1.4-1.5l1.6-2.1c.1-.1.2-.3.4-.4 0-.1.2-.2.4-.2z"/><path class="st2" d="M244.8 473.1c.5 0 .8.3.8.8 0 0-.2.3-.5.8s-.8 1.1-1.4 1.8c-.6.7-1.3 1.5-2.1 2.3-.8.8-1.7 1.6-2.8 2.3-1 .7-2.1 1.3-3.3 1.8-1.1.5-2.3.7-3.6.7-1.8 0-3.2-.5-4.2-1.4-1-.9-1.7-2.1-2.2-3.4-.5-1.4-.8-2.9-.8-4.5-.1-1.6-.1-3.1-.1-4.5s.1-2.5.1-3.4c0-.9-.1-1.4-.3-1.4-.4.9-1 2-1.6 3.1-.6 1.2-1.3 2.3-1.9 3.3-.6 1-1.1 1.9-1.6 2.7-.4.8-.7 1.2-.8 1.3-.2.3-.4.4-.7.5-.3.1-.5 0-.7-.1-.2-.1-.3-.2-.4-.4-.1-.2 0-.4.2-.7 1.5-2 2.7-4.1 3.8-6.3s2.1-4.2 3-6.1c.9-1.9 1.9-3.4 3-4.6 1-1.2 2.2-1.8 3.6-1.8.6 0 1 .3 1.3 1 .3.7.5 1.5.7 2.6.1 1.1.2 2.3.2 3.7v4.2c0 1.5 0 2.9.1 4.2.1 1.4.2 2.6.4 3.7s.5 2 .9 2.6 1 1 1.7 1 1.5-.2 2.2-.5c.8-.3 1.5-.7 2.1-1.1.7-.4 1.4-.9 2.1-1.5l1.6-2.1c.6-.4.8-.6 1.2-.6zm-15.3-21.6c-1.3 0-2.4-.4-3.2-1.3-.9-.9-1.3-2-1.3-3.2 0-1.2.4-2.3 1.3-3.2.9-.9 2-1.3 3.2-1.3 1.3 0 2.4.4 3.2 1.3.9.9 1.3 1.9 1.3 3.2 0 1.3-.4 2.4-1.3 3.2-.9.8-2 1.3-3.2 1.3z"/><path class="st9" d="M236.2 461.4c-.5-.3-.6-.7-.3-1.2s.8-1.1 1.6-1.7c.8-.6 1.7-1.2 2.8-1.8 1.1-.6 2.2-1.1 3.3-1.6 0-2.3 0-4.6.1-7 0-2.4.1-4.5.2-6.5.1-1.9.2-3.6.4-5 .1-1.4.3-2.2.5-2.6.4-.6.9-1.4 1.6-2.3.7-.9 1.4-1.8 2.2-2.6.7-.8 1.4-1.4 2-1.9.6-.4 1.1-.5 1.4-.2.2.3.3 1.3.2 3 0 1.7-.1 3.9-.2 6.5s-.3 5.5-.4 8.7c-.2 3.2-.3 6.4-.4 9.6 1.1.2 2.1.5 3.1.7 1 .3 2 .5 2.8.8.8.3 1.6.5 2.2.7.6.2 1 .3 1.2.3.3 0 .5 0 .8-.1l.6-.3c.2-.1.4-.1.5-.2.2 0 .4 0 .6.2.2.1.3.3.3.5s-.2.5-.5.8c-.3.4-.8.8-1.5 1.4-.7.6-1.6 1.4-2.7 2.3-.9.8-2.1 1.1-3.4 1-1.3-.1-2.7-.3-4.1-.8.1 2.8.2 5.2.5 7.2.4 2.8 1 5 1.9 6.7.9 1.7 2 2.5 3.2 2.5.6 0 1.3-.3 2.1-.8s1.5-1.1 2.1-1.7c.8-.7 1.5-1.5 2.4-2.5l.5-.5c.1-.1.3-.2.5-.2s.4 0 .5.2c.2.1.3.3.3.4 0 .1 0 .2-.1.4l-.2.3-.2.2c0 .1-.2.3-.5.8s-.7 1-1.3 1.6c-.5.6-1.2 1.3-1.9 2.1-.7.7-1.6 1.4-2.5 2.1-.9.6-1.9 1.2-3 1.6-1.1.4-2.2.6-3.4.6-1.2 0-2.2-.3-3.1-.8-.9-.5-1.6-1.2-2.3-2-.6-.8-1.2-1.7-1.6-2.8-.4-1-.8-2.1-1-3.1-.3-1-.4-2-.5-2.9-.1-.9-.1-1.7-.1-2.3v-10c-.6-.2-1.2-.3-1.7-.4-.5-.1-1 0-1.4.1-.7.2-1.3.4-1.8.7-.4.3-.8.6-1.1.8-.3.3-.5.5-.7.6 0 .6-.2.6-.5.4z"/><path class="st3" d="M301.8 473.1c.5 0 .8.3.8.8 0 0-.2.3-.5.8s-.8 1.1-1.4 1.8c-.6.7-1.3 1.5-2.1 2.3-.8.8-1.7 1.6-2.8 2.3-1 .7-2.1 1.3-3.3 1.8-1.1.5-2.3.7-3.6.7-1.9 0-3.5-.5-4.8-1.4-1.3-.9-2.3-2.1-3-3.6-.8-1.4-1.3-3-1.7-4.8-.4-1.7-.7-3.4-.9-5-.2-1.6-.4-3-.6-4.2-.2-1.2-.4-2-.7-2.4-.2-.3-.5-.5-1-.7-.4-.2-.9-.3-1.4-.4-.5-.1-1-.2-1.5-.2-.5-.1-.9-.2-1.3-.3-.2 0-.4-.1-.7-.2-.2.9-.5 2-1.1 3.3-.5 1.3-1.1 2.7-1.9 4.1-.7 1.4-1.5 2.8-2.2 4.1-.8 1.3-1.5 2.4-2.2 3.3-.2.3-.4.4-.7.5-.2.1-.4.1-.6-.1-.1-.1-.2-.3-.2-.5 0-.3.1-.6.4-.9 1.5-2.2 2.8-4.1 3.7-5.7.9-1.6 1.6-3 2.1-4.2.5-1.1.9-2.1 1-2.7s.3-1.2.4-1.4l-1.6-.5c-.5-.1-.8-.3-1-.5-1-.6-1.5-1.5-1.5-2.7 0-.9.3-1.6.9-2.2.6-.6 1.3-.9 2.2-.9.8 0 1.5.3 2.1.8.6.5.9 1.1 1 1.9l.1.5v1.1c.8.2 1.8.4 3.1.5l3.9.3c1.3.1 2.5.2 3.5.4 1.1.2 1.8.5 2.1.9.3.5.6 1.3.9 2.4.3 1.1.5 2.4.8 3.9.3 1.4.5 2.9.9 4.4.3 1.5.7 2.9 1.2 4.2.5 1.3 1 2.3 1.7 3.1.7.8 1.5 1.2 2.5 1.2.7 0 1.5-.2 2.2-.5.8-.3 1.5-.7 2.1-1.1.7-.4 1.4-.9 2.1-1.5l1.6-2.1c.1-.1.2-.3.4-.4.3-.2.4-.3.6-.3z"/><path class="st10" d="M320.5 463.8c-.2.9-.7 1.9-1.3 3-.7 1.1-1.4 2.1-2.3 3.2-.9 1.1-1.8 2.1-2.8 3.1l-2.6 2.6c.7 1.2 1.6 2.1 2.7 2.8 1.1.7 2.3 1.1 3.8 1.1 1.1 0 2.2-.2 3.4-.7 1.1-.4 2.3-1 3.7-1.9 1.4-.9 2.9-2.2 4.5-3.9.2-.3.4-.5.7-.5.2 0 .4 0 .5.2.1.1.2.3.2.5s0 .4-.1.5c-.1.1-.4.4-.9 1-.5.5-1.2 1.1-2.1 1.9-.9.7-1.9 1.5-3 2.3-1.1.8-2.4 1.5-3.7 2.2-1.3.7-2.7 1.2-4.1 1.7-1.4.4-2.8.7-4.3.7-2.2 0-4-.4-5.6-1.3-1.5-.9-2.8-2-3.8-3.3-1-1.3-1.8-2.8-2.2-4.3-.5-1.6-.7-3-.7-4.4 0-1.4.3-3 .8-4.6.5-1.6 1.4-3.2 2.4-4.6 1.1-1.4 2.4-2.6 4-3.5 1.6-.9 3.4-1.4 5.5-1.4 1.7 0 3 .2 4 .7 1 .5 1.8 1.1 2.3 1.9.5.8.8 1.6.9 2.5.2.8.2 1.7.1 2.5zm-6.6-6.1c-1.2 0-2.3.6-3 1.7-.8 1.1-1.3 2.5-1.6 4.1-.3 1.6-.3 3.4-.1 5.3.2 1.9.7 3.7 1.4 5.3.8-.7 1.6-1.4 2.5-2.3.9-.9 1.8-1.8 2.6-2.7.8-.9 1.5-1.9 2.1-2.8.6-.9 1-1.8 1.1-2.6.2-1.1.2-2.1-.1-2.9-.2-.8-.6-1.4-1-1.9s-1-.8-1.7-1c-.8-.1-1.5-.2-2.2-.2z"/><path class="st5" d="M349 463.8c-.2.9-.7 1.9-1.3 3-.7 1.1-1.4 2.1-2.3 3.2-.9 1.1-1.8 2.1-2.8 3.1l-2.6 2.6c.7 1.2 1.6 2.1 2.7 2.8 1.1.7 2.3 1.1 3.8 1.1 1.1 0 2.2-.2 3.4-.7 1.1-.4 2.3-1 3.7-1.9 1.4-.9 2.9-2.2 4.5-3.9.2-.3.4-.5.7-.5.2 0 .4 0 .5.2.1.1.2.3.2.5s0 .4-.1.5c-.1.1-.4.4-.9 1-.5.5-1.2 1.1-2.1 1.9-.9.7-1.9 1.5-3 2.3-1.1.8-2.4 1.5-3.7 2.2-1.3.7-2.7 1.2-4.1 1.7-1.4.4-2.8.7-4.3.7-2.1 0-4-.4-5.6-1.3-1.5-.9-2.8-2-3.8-3.3-1-1.3-1.8-2.8-2.2-4.3-.5-1.6-.7-3-.7-4.4 0-1.4.3-3 .8-4.6.5-1.6 1.4-3.2 2.4-4.6 1.1-1.4 2.4-2.6 4-3.5 1.6-.9 3.4-1.4 5.5-1.4 1.7 0 3 .2 4 .7 1 .5 1.8 1.1 2.3 1.9.5.8.8 1.6.9 2.5.3.8.3 1.7.1 2.5zm-6.6-6.1c-1.2 0-2.3.6-3 1.7-.8 1.1-1.3 2.5-1.6 4.1-.3 1.6-.3 3.4-.1 5.3.2 1.9.7 3.7 1.4 5.3.8-.7 1.6-1.4 2.5-2.3.9-.9 1.8-1.8 2.6-2.7.8-.9 1.5-1.9 2.1-2.8.6-.9 1-1.8 1.1-2.6.2-1.1.2-2.1-.1-2.9-.2-.8-.6-1.4-1-1.9-.5-.5-1.1-.8-1.7-1-.7-.1-1.4-.2-2.2-.2z"/><path class="st1" d="M143.9 436c-3.2.3-6.6.4-10.1.5-3.6.1-7.2.1-11 0s-7.5-.2-11.1-.3c-3.6-.2-7.2-.3-10.5-.5-3.4-.2-6.4-.3-9.2-.5-2.8-.1-5.2-.3-7.2-.4-2-.1-3.5-.1-4.5 0-1.9.1-3.4.5-4.4 1.2-1 .7-1.6 1.4-1.9 2.3-.2.9-.1 1.8.3 2.7.4.9 1.1 1.6 2.1 2.2.5.3 1.5.5 3 .7 1.5.2 3.4.3 5.7.5 2.3.1 4.8.2 7.7.3 2.9.1 5.8.1 8.9.1v4.3c0 1.8 0 3.8-.1 6 0 2.3-.1 4.7-.1 7.3v27.7c0 4.9 3.2 4.7 3.2 1.8v-47.4c3.2 0 6.5-.1 9.7-.2 3.2-.1 6.3-.2 9.2-.3 2.9-.1 5.5-.3 7.8-.5s4.2-.4 5.6-.6c2.9-.5 5.3-1.2 7.3-2 2-.9 3.6-1.8 4.9-2.8 1.5-1.1 2.6-2.2 3.6-3.4-2.9.7-5.7 1.1-8.9 1.3z"/><path class="st11" d="M104.7 460.2c2.9.2 6.1.4 9.4.5 3.4.1 6.7.2 10 .2s6.5-.1 9.5-.3c3-.2 5.7-.5 7.9-1-.7.9-1.5 1.8-2.5 2.6-.9.7-2 1.4-3.4 2.1-1.4.7-3.1 1.2-5.1 1.5-1.1.2-2.6.4-4.5.5-1.9.2-4.1.3-6.4.4-2.4.1-4.8.2-7.4.2-2.6 0-5.1.1-7.6.1 0 3.1-3.1 4.3-3.1 0-1.6 0-3.2-.1-4.6-.1-1.5-.1-2.8-.1-3.9-.2s-2.1-.2-2.8-.3c-.8-.1-1.3-.3-1.5-.5-.7-.4-1.1-1-1.4-1.6-.3-.7-.4-1.3-.2-1.9.2-.6.6-1.2 1.3-1.7.7-.5 1.7-.8 3-.9.8 0 2 0 3.8.1 1.8.1 3.9.2 6.3.4.2-3 3.2-2.9 3.2-.1z"/></svg>